<svg width="19" height="19" viewBox="0 0 19 19" fill="none" xmlns="http://www.w3.org/2000/svg">
<path d="M18.4102 8.89199V17.8141C18.4102 18.0771 18.3162 18.3292 18.1489 18.5151C17.9816 18.701 17.7546 18.8055 17.518 18.8055H1.45813C1.2215 18.8055 0.994565 18.701 0.827242 18.5151C0.659919 18.3292 0.565918 18.0771 0.565918 17.8141V8.89199H18.4102ZM18.4102 4.92658H0.565918V1.95253C0.565918 1.68961 0.659919 1.43746 0.827242 1.25154C0.994565 1.06563 1.2215 0.961182 1.45813 0.961182H17.518C17.7546 0.961182 17.9816 1.06563 18.1489 1.25154C18.3162 1.43746 18.4102 1.68961 18.4102 1.95253V4.92658Z" fill="#202533"/>
</svg>
