<svg width="19" height="19" viewBox="0 0 19 19" fill="none" xmlns="http://www.w3.org/2000/svg">
<path fill-rule="evenodd" clip-rule="evenodd" d="M4.7756 2.76122V4.25813L3.12624 4.40221C1.96007 4.50408 1.0088 5.4543 0.821764 6.70415C0.781122 6.97579 0.744151 7.2479 0.71087 7.5204C0.694356 7.65568 0.760986 7.78655 0.874908 7.84493L0.949931 7.88339C6.23581 10.5919 12.5654 10.5919 17.8513 7.88339L17.9264 7.84493C18.0403 7.78655 18.1069 7.65568 18.0903 7.52041C18.0571 7.24791 18.0201 6.97579 17.9795 6.70415C17.7925 5.4543 16.8412 4.50408 15.675 4.40221L14.0257 4.25813V2.76122C14.0257 1.84842 13.4086 1.07299 12.5745 0.93759L11.3867 0.744769C10.07 0.531041 8.73122 0.531041 7.41461 0.744769L6.22679 0.93759C5.39267 1.07299 4.7756 1.84842 4.7756 2.76122ZM11.171 2.30754C9.99795 2.11712 8.80518 2.11712 7.63218 2.30754L6.44438 2.50035C6.32522 2.5197 6.23707 2.63047 6.23707 2.76087V4.14654C8.34501 4.01585 10.4581 4.01585 12.5661 4.14654V2.76087C12.5661 2.63047 12.4779 2.5197 12.3588 2.50035L11.171 2.30754Z" fill="#202533"/>
<path d="M18.2786 9.72639C18.2713 9.57876 18.1285 9.48645 18.0036 9.54631C12.5792 12.1455 6.22112 12.1455 0.796772 9.54631C0.671848 9.48645 0.529027 9.57876 0.521763 9.72639C0.422661 11.7405 0.522523 13.7632 0.821319 15.76C1.00836 17.0099 1.95962 17.9601 3.12579 18.062L4.94846 18.2212C7.91141 18.48 10.8889 18.48 13.8519 18.2212L15.6745 18.062C16.8407 17.9601 17.792 17.0099 17.9791 15.76C18.2778 13.7632 18.3777 11.7405 18.2786 9.72639Z" fill="#202533"/>
</svg>
