<svg width="55" height="51" viewBox="0 0 55 51" fill="none" xmlns="http://www.w3.org/2000/svg">
<path d="M0.421875 25.5428C0.421875 39.558 11.7834 50.9195 25.7986 50.9195C39.8138 50.9195 51.1754 39.558 51.1754 25.5428C51.1754 11.5276 39.8138 0.166016 25.7986 0.166016C11.7834 0.166016 0.421875 11.5276 0.421875 25.5428Z" fill="#1877F2"/>
<path d="M38.4939 25.5429C38.4939 18.5643 32.7842 12.8545 25.8056 12.8545C18.827 12.8545 13.1172 18.5643 13.1172 25.5429C13.1172 31.8871 17.7167 37.121 23.7437 38.0726V29.1908H20.5716V25.5429H23.7437V22.688C23.7437 19.5159 25.647 17.7712 28.5018 17.7712C29.9293 17.7712 31.3567 18.0884 31.3567 18.0884V21.2605H29.7707C28.1846 21.2605 27.7088 22.2122 27.7088 23.1638V25.5429H31.1981L30.5637 29.1908H27.5502V38.2312C33.8944 37.2796 38.4939 31.8871 38.4939 25.5429Z" fill="white"/>
</svg>
