<svg width="54" height="51" viewBox="0 0 54 51" fill="none" xmlns="http://www.w3.org/2000/svg">
<path d="M0.179688 25.5428C0.179688 39.558 11.5412 50.9195 25.5564 50.9195C39.5716 50.9195 50.9332 39.558 50.9332 25.5428C50.9332 11.5276 39.5716 0.166016 25.5564 0.166016C11.5412 0.166016 0.179688 11.5276 0.179688 25.5428Z" fill="#25D366"/>
<path fill-rule="evenodd" clip-rule="evenodd" d="M34.4453 16.5024C32.0662 14.1233 28.8941 12.8545 25.5634 12.8545C18.5848 12.8545 12.875 18.5643 12.875 25.5429C12.875 27.7633 13.5094 29.9838 14.6197 31.8871L12.875 38.2312L19.5364 36.4866C21.4397 37.4382 23.5015 38.0726 25.5634 38.0726C32.542 38.0726 38.2518 32.3629 38.2518 25.3843C38.2518 22.0536 36.8243 18.8815 34.4453 16.5024ZM25.5634 36.0108C23.6601 36.0108 21.7569 35.535 20.1708 34.5833L19.8536 34.4247L15.8885 35.535L16.9987 31.7285L16.6815 31.2526C15.5713 29.508 15.0955 27.6047 15.0955 25.7015C15.0955 19.9917 19.8536 15.2336 25.5634 15.2336C28.4183 15.2336 30.956 16.3438 33.0178 18.2471C35.0797 20.3089 36.0313 22.8466 36.0313 25.7015C36.0313 31.2526 31.4318 36.0108 25.5634 36.0108ZM31.2732 28.0805C30.9559 27.9219 29.3699 27.1289 29.0527 27.1289C28.7355 26.9703 28.5768 26.9703 28.4182 27.2875C28.2596 27.6047 27.6253 28.2392 27.4667 28.5564C27.3081 28.715 27.1494 28.715 26.8322 28.715C26.515 28.5564 25.5634 28.2392 24.2946 27.1289C23.3429 26.3359 22.7085 25.2257 22.5499 24.9085C22.3913 24.5912 22.5499 24.4326 22.7085 24.274C22.8671 24.1154 23.0257 23.9568 23.1843 23.7982C23.3429 23.6396 23.3429 23.481 23.5015 23.3224C23.6601 23.1638 23.5015 23.0052 23.5015 22.8466C23.5015 22.688 22.8671 21.1019 22.5499 20.4675C22.3913 19.9917 22.0741 19.9917 21.9155 19.9917C21.7569 19.9917 21.5982 19.9917 21.281 19.9917C21.1224 19.9917 20.8052 19.9917 20.488 20.3089C20.1708 20.6261 19.3778 21.4191 19.3778 23.0052C19.3778 24.5912 20.488 26.0187 20.6466 26.3359C20.8052 26.4945 22.8671 29.8252 26.0392 31.094C28.7355 32.2043 29.2113 31.8871 29.8457 31.8871C30.4801 31.8871 31.749 31.094 31.9076 30.4596C32.2248 29.6666 32.2248 29.0322 32.0662 29.0322C31.9076 28.2392 31.5904 28.2392 31.2732 28.0805Z" fill="white"/>
</svg>
