<svg width="55" height="51" viewBox="0 0 55 51" fill="none" xmlns="http://www.w3.org/2000/svg">
<path d="M0.671875 25.5428C0.671875 39.558 12.0334 50.9195 26.0486 50.9195C40.0638 50.9195 51.4254 39.558 51.4254 25.5428C51.4254 11.5276 40.0638 0.166016 26.0486 0.166016C12.0334 0.166016 0.671875 11.5276 0.671875 25.5428Z" fill="#F00073"/>
<path d="M26.047 14.758C29.5363 14.758 30.0121 14.758 31.4396 14.758C32.7084 14.758 33.3428 15.0752 33.8186 15.2338C34.4531 15.551 34.9289 15.7096 35.4047 16.1854C35.8805 16.6612 36.1977 17.137 36.3563 17.7715C36.5149 18.2473 36.6735 18.8817 36.8321 20.1505C36.8321 21.578 36.8321 21.8952 36.8321 25.5431C36.8321 29.191 36.8321 29.5082 36.8321 30.9357C36.8321 32.2045 36.5149 32.8389 36.3563 33.3147C36.0391 33.9491 35.8805 34.425 35.4047 34.9008C34.9289 35.3766 34.4531 35.6938 33.8186 35.8524C33.3428 36.011 32.7084 36.1696 31.4396 36.3282C30.0121 36.3282 29.6949 36.3282 26.047 36.3282C22.3991 36.3282 22.0819 36.3282 20.6544 36.3282C19.3856 36.3282 18.7512 36.011 18.2754 35.8524C17.641 35.5352 17.1651 35.3766 16.6893 34.9008C16.2135 34.425 15.8963 33.9491 15.7377 33.3147C15.5791 32.8389 15.4205 32.2045 15.2619 30.9357C15.2619 29.5082 15.2619 29.191 15.2619 25.5431C15.2619 21.8952 15.2619 21.578 15.2619 20.1505C15.2619 18.8817 15.5791 18.2473 15.7377 17.7715C16.0549 17.137 16.2135 16.6612 16.6893 16.1854C17.1651 15.7096 17.641 15.3924 18.2754 15.2338C18.7512 15.0752 19.3856 14.9166 20.6544 14.758C22.0819 14.758 22.5577 14.758 26.047 14.758ZM26.047 12.3789C22.3991 12.3789 22.0819 12.3789 20.6544 12.3789C19.227 12.3789 18.2754 12.6961 17.4824 13.0133C16.6893 13.3305 15.8963 13.8063 15.1033 14.5994C14.3103 15.3924 13.993 16.0268 13.5172 16.9784C13.2 17.7715 13.0414 18.7231 12.8828 20.1505C12.8828 21.578 12.8828 22.0538 12.8828 25.5431C12.8828 29.191 12.8828 29.5082 12.8828 30.9357C12.8828 32.3631 13.2 33.3147 13.5172 34.1078C13.8344 34.9008 14.3103 35.6938 15.1033 36.4868C15.8963 37.2798 16.5307 37.5971 17.4824 38.0729C18.2754 38.3901 19.227 38.5487 20.6544 38.7073C22.0819 38.7073 22.5577 38.7073 26.047 38.7073C29.5363 38.7073 30.0121 38.7073 31.4396 38.7073C32.867 38.7073 33.8186 38.3901 34.6117 38.0729C35.4047 37.7557 36.1977 37.2798 36.9907 36.4868C37.7838 35.6938 38.101 35.0594 38.5768 34.1078C38.894 33.3147 39.0526 32.3631 39.2112 30.9357C39.2112 29.5082 39.2112 29.0324 39.2112 25.5431C39.2112 22.0538 39.2112 21.578 39.2112 20.1505C39.2112 18.7231 38.894 17.7715 38.5768 16.9784C38.2596 16.1854 37.7838 15.3924 36.9907 14.5994C36.1977 13.8063 35.5633 13.4891 34.6117 13.0133C33.8186 12.6961 32.867 12.5375 31.4396 12.3789C30.0121 12.3789 29.6949 12.3789 26.047 12.3789Z" fill="white"/>
<path d="M26.047 18.7231C22.2405 18.7231 19.227 21.7366 19.227 25.5431C19.227 29.3496 22.2405 32.3631 26.047 32.3631C29.8535 32.3631 32.867 29.3496 32.867 25.5431C32.867 21.7366 29.8535 18.7231 26.047 18.7231ZM26.047 29.984C23.6679 29.984 21.6061 28.0808 21.6061 25.5431C21.6061 23.164 23.5093 21.1022 26.047 21.1022C28.4261 21.1022 30.4879 23.0054 30.4879 25.5431C30.4879 27.9222 28.4261 29.984 26.047 29.984Z" fill="white"/>
<path d="M33.0256 20.1505C33.9016 20.1505 34.6117 19.4404 34.6117 18.5645C34.6117 17.6885 33.9016 16.9784 33.0256 16.9784C32.1497 16.9784 31.4396 17.6885 31.4396 18.5645C31.4396 19.4404 32.1497 20.1505 33.0256 20.1505Z" fill="white"/>
</svg>
