<svg width="17" height="18" viewBox="0 0 17 18" fill="none" xmlns="http://www.w3.org/2000/svg">
<path d="M8.98503 1.39056C8.98503 1.04299 8.70652 0.76123 8.36299 0.76123C8.01946 0.76123 7.74095 1.04299 7.74095 1.39056V2.25413C3.72121 2.57175 0.548548 5.94126 0.484809 10.0744C0.480513 10.3532 0.679549 10.5895 0.947059 10.6347C3.19687 11.014 5.46802 11.2195 7.74095 11.2512V16.0748C7.74095 16.4224 7.46244 16.7041 7.11891 16.7041C6.77538 16.7041 6.49687 16.4224 6.49687 16.0748V15.6553C6.49687 15.3077 6.21837 15.0259 5.87484 15.0259C5.5313 15.0259 5.2528 15.3077 5.2528 15.6553V16.0748C5.2528 17.1175 6.08829 17.9628 7.11891 17.9628C8.14951 17.9628 8.98503 17.1175 8.98503 16.0748V11.2512C11.258 11.2195 13.5291 11.014 15.7789 10.6347C16.0464 10.5895 16.2455 10.3532 16.2412 10.0744C16.1775 5.94126 13.0048 2.57174 8.98503 2.25413V1.39056Z" fill="#202533"/>
</svg>
