<svg width="22" height="16" viewBox="0 0 22 16" fill="none" xmlns="http://www.w3.org/2000/svg">
<path fill-rule="evenodd" clip-rule="evenodd" d="M0.931879 13.7233C0.662485 13.4448 0.599438 13.0269 0.774757 12.6818L1.62762 11.003C3.64612 7.02972 7.73469 4.52535 12.2029 4.52535H12.6222C12.6528 3.86324 12.6923 3.20144 12.7406 2.54013L12.8231 1.41237C12.8902 0.495252 13.9161 -0.0174235 14.6935 0.477699C17.2438 2.10196 19.4609 4.19486 21.2266 6.64484L21.7811 7.41426C22.0094 7.73111 22.0094 8.15789 21.7811 8.47475L21.2266 9.24417C19.4609 11.6941 17.2438 13.787 14.6935 15.4113C13.9161 15.9064 12.8902 15.3938 12.8231 14.4766L12.7406 13.3489C12.6829 12.5591 12.6378 11.7687 12.6054 10.9778C9.99169 10.9026 7.38119 11.4284 4.98203 12.5321L1.97034 13.9176C1.61797 14.0797 1.20127 14.0017 0.931879 13.7233ZM3.62875 11.1527L4.21782 10.8817C7.14921 9.5332 10.3656 8.96387 13.5571 9.20821C14.0219 9.24379 14.3849 9.62309 14.3987 10.0875C14.4297 11.1313 14.4832 12.1747 14.5595 13.2167L14.566 13.307C16.5641 11.8992 18.3151 10.1683 19.7454 8.18368L19.9178 7.9445L19.7454 7.70532C18.3151 5.72069 16.5641 3.98976 14.5661 2.58205L14.5595 2.67228C14.4914 3.60247 14.4414 4.53365 14.4094 5.46528C14.3926 5.95485 13.9896 6.34306 13.4982 6.34306L12.2029 6.34306C8.68043 6.34306 5.4368 8.18246 3.62875 11.1527Z" fill="url(#paint0_linear_265_1605)"/>
<defs>
<linearGradient id="paint0_linear_265_1605" x1="11.3144" y1="15.6038" x2="11.3144" y2="0.668124" gradientUnits="userSpaceOnUse">
<stop stop-color="#7EC9F5"/>
<stop offset="1" stop-color="#3957ED"/>
</linearGradient>
</defs>
</svg>
