<svg width="19" height="19" viewBox="0 0 19 19" fill="none" xmlns="http://www.w3.org/2000/svg">
<path d="M6.98929 5.13818H6.07956C5.45151 5.13818 4.94238 5.64731 4.94238 6.27536V7.1851C4.94238 7.81314 5.45151 8.32227 6.07956 8.32227H6.98929C7.61734 8.32227 8.12647 7.81314 8.12647 7.1851V6.27536C8.12647 5.64731 7.61734 5.13818 6.98929 5.13818Z" stroke="#202533" stroke-width="1.33732"/>
<path d="M12.72 5.13818H11.8103C11.1822 5.13818 10.6731 5.64731 10.6731 6.27536V7.1851C10.6731 7.81314 11.1822 8.32227 11.8103 8.32227H12.72C13.3481 8.32227 13.8572 7.81314 13.8572 7.1851V6.27536C13.8572 5.64731 13.3481 5.13818 12.72 5.13818Z" stroke="#202533" stroke-width="1.33732"/>
<path d="M12.72 10.8696H11.8103C11.1822 10.8696 10.6731 11.3788 10.6731 12.0068V12.9165C10.6731 13.5446 11.1822 14.0537 11.8103 14.0537H12.72C13.3481 14.0537 13.8572 13.5446 13.8572 12.9165V12.0068C13.8572 11.3788 13.3481 10.8696 12.72 10.8696Z" stroke="#202533" stroke-width="1.33732"/>
<path d="M6.98929 10.8696H6.07956C5.45151 10.8696 4.94238 11.3788 4.94238 12.0068V12.9165C4.94238 13.5446 5.45151 14.0537 6.07956 14.0537H6.98929C7.61734 14.0537 8.12647 13.5446 8.12647 12.9165V12.0068C8.12647 11.3788 7.61734 10.8696 6.98929 10.8696Z" stroke="#202533" stroke-width="1.33732"/>
<path d="M1.82923 2.0249C2.99843 0.855711 4.78588 0.700926 8.07174 0.680433C8.45344 0.678059 8.76336 0.987639 8.76336 1.36933C8.76336 1.75003 8.45482 2.0585 8.07413 2.06091C6.70123 2.06961 5.65782 2.10096 4.81899 2.21374C3.71913 2.3616 3.17983 2.62631 2.80524 3.0009C2.43065 3.37549 2.16593 3.91479 2.01807 5.01464C1.90529 5.85346 1.87394 6.89687 1.86524 8.26982C1.86283 8.6505 1.55435 8.95904 1.17367 8.95904C0.791962 8.95904 0.482381 8.64903 0.484755 8.26733C0.505248 4.98153 0.660034 3.19408 1.82923 2.0249Z" fill="#202533"/>
<path d="M1.17367 10.2324C0.791962 10.2324 0.482381 10.5423 0.484755 10.924C0.505248 14.2099 0.660034 15.9973 1.82923 17.1665C2.99843 18.3357 4.78588 18.4905 8.07174 18.511C8.45344 18.5134 8.76336 18.2038 8.76336 17.8221C8.76336 17.4414 8.45482 17.1329 8.07413 17.1306C6.70123 17.1218 5.65782 17.0905 4.81899 16.9777C3.71913 16.8298 3.17983 16.5651 2.80524 16.1905C2.43065 15.816 2.16593 15.2766 2.01807 14.1768C1.90529 13.338 1.87394 12.2946 1.86524 10.9216C1.86283 10.541 1.55435 10.2324 1.17367 10.2324Z" fill="#202533"/>
<path d="M17.6272 10.2324C17.2465 10.2324 16.938 10.541 16.9356 10.9216C16.927 12.2946 16.8956 13.338 16.7829 14.1768C16.635 15.2766 16.3702 15.816 15.9956 16.1905C15.621 16.5651 15.0818 16.8298 13.9819 16.9777C13.143 17.0905 12.0996 17.1218 10.7267 17.1306C10.346 17.1329 10.0375 17.4414 10.0375 17.8221C10.0375 18.2038 10.3475 18.5134 10.7292 18.511C14.015 18.4905 15.8025 18.3357 16.9717 17.1665C18.1409 15.9973 18.2957 14.2099 18.3161 10.924C18.3185 10.5423 18.0089 10.2324 17.6272 10.2324Z" fill="#202533"/>
<path d="M17.6272 8.95904C18.0089 8.95904 18.3185 8.64903 18.3161 8.26733C18.2957 4.98153 18.1409 3.19408 16.9717 2.0249C15.8025 0.855711 14.015 0.700926 10.7292 0.680433C10.3475 0.678059 10.0375 0.987639 10.0375 1.36933C10.0375 1.75003 10.346 2.0585 10.7267 2.06091C12.0996 2.06961 13.143 2.10096 13.9819 2.21374C15.0818 2.3616 15.621 2.62631 15.9956 3.0009C16.3702 3.37549 16.635 3.91479 16.7829 5.01464C16.8956 5.85346 16.927 6.89687 16.9356 8.26982C16.938 8.6505 17.2465 8.95904 17.6272 8.95904Z" fill="#202533"/>
</svg>
